<svg width="100" height="100" viewBox="0 0 21 23" fill="none" xmlns="http://www.w3.org/2000/svg">
    <path fill-rule="evenodd" clip-rule="evenodd" d="M7.5 0.75C7.91421 0.75 8.25 1.08579 8.25 1.5V2.76061C8.91924 2.75 9.66284 2.75 10.4889 2.75H10.5111C11.3372 2.75 12.0808 2.75 12.75 2.76061V1.5C12.75 1.08579 13.0858 0.75 13.5 0.75C13.9142 0.75 14.25 1.08579 14.25 1.5V2.81358C15.7619 2.90837 16.9234 3.15335 17.8798 3.84815C18.3679 4.20281 18.7972 4.63209 19.1518 5.12023C19.7377 5.92656 20 6.87094 20.1263 8.03648C20.25 9.17861 20.25 10.6182 20.25 12.4547V12.5115C20.25 13.6713 20.25 14.6686 20.2206 15.5257C20.1564 17.3991 19.9537 18.7761 19.1518 19.8798C18.7972 20.3679 18.3679 20.7972 17.8798 21.1518C16.7761 21.9537 15.3991 22.1564 13.5257 22.2206C12.6684 22.25 11.671 22.25 10.5108 22.25H10.4547C8.6182 22.25 7.17861 22.25 6.03648 22.1263C4.87094 22 3.92656 21.7377 3.12024 21.1518C2.63209 20.7972 2.20281 20.3679 1.84815 19.8798C1.26232 19.0734 1.00001 18.1291 0.873728 16.9635C0.749985 15.8214 0.749992 14.3818 0.75 12.5452V12.4548C0.749992 10.6182 0.749985 9.17861 0.873728 8.03648C1.00001 6.87094 1.26232 5.92656 1.84815 5.12023C2.20281 4.63209 2.63209 4.20281 3.12024 3.84815C4.07655 3.15335 5.23808 2.90837 6.75 2.81358V1.5C6.75 1.08579 7.08579 0.75 7.5 0.75ZM6.75 4.31725C5.38795 4.41092 4.60177 4.62585 4.00191 5.06168C3.64111 5.32382 3.32382 5.64111 3.06168 6.00191C2.69259 6.50992 2.47745 7.16013 2.365 8.19804C2.25103 9.24999 2.25 10.6084 2.25 12.5C2.25 14.3916 2.25103 15.75 2.365 16.802C2.47745 17.8399 2.69259 18.4901 3.06168 18.9981C3.32382 19.3589 3.64111 19.6762 4.00191 19.9383C4.50992 20.3074 5.16013 20.5225 6.19805 20.635C7.24999 20.749 8.60843 20.75 10.5 20.75C11.3483 20.75 12.0918 20.7499 12.7518 20.7392C12.7562 20.2645 12.771 19.9151 12.8208 19.6005C13.2105 17.1401 15.1401 15.2105 17.6005 14.8208C17.9151 14.771 18.2645 14.7562 18.7392 14.7518C18.75 14.0918 18.75 13.3483 18.75 12.5C18.75 10.6084 18.749 9.24999 18.635 8.19804C18.5225 7.16013 18.3074 6.50992 17.9383 6.00191C17.6762 5.64111 17.3589 5.32382 16.9981 5.06168C16.3982 4.62585 15.6121 4.41092 14.25 4.31725V4.5C14.25 4.91421 13.9142 5.25 13.5 5.25C13.0858 5.25 12.75 4.91421 12.75 4.5V4.26079C12.0904 4.25005 11.3476 4.25 10.5 4.25C9.65243 4.25 8.90959 4.25005 8.25 4.26079V4.5C8.25 4.91421 7.91421 5.25 7.5 5.25C7.08579 5.25 6.75 4.91421 6.75 4.5V4.31725ZM18.6826 16.2528C18.2776 16.2575 18.0402 16.2699 17.8352 16.3023C16.0166 16.5904 14.5904 18.0166 14.3023 19.8352C14.2699 20.0402 14.2575 20.2776 14.2528 20.6826C15.6131 20.5888 16.3986 20.3738 16.9981 19.9383C17.3589 19.6762 17.6762 19.3589 17.9383 18.9981C18.3739 18.3986 18.5888 17.6131 18.6826 16.2528Z" fill="black"/>
    <path d="M6.5 8.5C6.5 9.05228 6.05229 9.5 5.5 9.5C4.94772 9.5 4.5 9.05228 4.5 8.5C4.5 7.94772 4.94772 7.5 5.5 7.5C6.05229 7.5 6.5 7.94772 6.5 8.5Z" fill="black"/>
    <path d="M6.5 12.5C6.5 13.0523 6.05229 13.5 5.5 13.5C4.94772 13.5 4.5 13.0523 4.5 12.5C4.5 11.9477 4.94772 11.5 5.5 11.5C6.05229 11.5 6.5 11.9477 6.5 12.5Z" fill="black"/>
    <path d="M11.5 8.5C11.5 9.05228 11.0523 9.5 10.5 9.5C9.94772 9.5 9.5 9.05228 9.5 8.5C9.5 7.94772 9.94772 7.5 10.5 7.5C11.0523 7.5 11.5 7.94772 11.5 8.5Z" fill="black"/>
    <path d="M11.5 12.5C11.5 13.0523 11.0523 13.5 10.5 13.5C9.94772 13.5 9.5 13.0523 9.5 12.5C9.5 11.9477 9.94772 11.5 10.5 11.5C11.0523 11.5 11.5 11.9477 11.5 12.5Z" fill="black"/>
    <path d="M11.5 16.5C11.5 17.0523 11.0523 17.5 10.5 17.5C9.94772 17.5 9.5 17.0523 9.5 16.5C9.5 15.9477 9.94772 15.5 10.5 15.5C11.0523 15.5 11.5 15.9477 11.5 16.5Z" fill="black"/>
    <path d="M16.5 8.5C16.5 9.05228 16.0523 9.5 15.5 9.5C14.9477 9.5 14.5 9.05228 14.5 8.5C14.5 7.94772 14.9477 7.5 15.5 7.5C16.0523 7.5 16.5 7.94772 16.5 8.5Z" fill="black"/>
    <path d="M16.5 12.5C16.5 13.0523 16.0523 13.5 15.5 13.5C14.9477 13.5 14.5 13.0523 14.5 12.5C14.5 11.9477 14.9477 11.5 15.5 11.5C16.0523 11.5 16.5 11.9477 16.5 12.5Z" fill="black"/>
    <path d="M6.5 16.5C6.5 17.0523 6.05229 17.5 5.5 17.5C4.94772 17.5 4.5 17.0523 4.5 16.5C4.5 15.9477 4.94772 15.5 5.5 15.5C6.05229 15.5 6.5 15.9477 6.5 16.5Z" fill="black"/>
</svg>
