<svg width="100" height="100" viewBox="0 0 14 15" fill="none" xmlns="http://www.w3.org/2000/svg">
    <path d="M1.33333 4.33334H10.6667V3H1.33333V4.33334ZM1.33333 13.6667C0.966667 13.6667 0.652778 13.5361 0.391667 13.275C0.130556 13.0139 0 12.7 0 12.3333V3C0 2.63334 0.130556 2.31945 0.391667 2.05834C0.652778 1.79722 0.966667 1.66667 1.33333 1.66667H2V1C2 0.811114 2.06389 0.65278 2.19167 0.525003C2.31944 0.397225 2.47778 0.333336 2.66667 0.333336C2.85556 0.333336 3.01389 0.397225 3.14167 0.525003C3.26944 0.65278 3.33333 0.811114 3.33333 1V1.66667H8.66667V1C8.66667 0.811114 8.73056 0.65278 8.85833 0.525003C8.98611 0.397225 9.14444 0.333336 9.33333 0.333336C9.52222 0.333336 9.68056 0.397225 9.80833 0.525003C9.93611 0.65278 10 0.811114 10 1V1.66667H10.6667C11.0333 1.66667 11.3472 1.79722 11.6083 2.05834C11.8694 2.31945 12 2.63334 12 3V6.78334C11.7889 6.68334 11.5722 6.6 11.35 6.53334C11.1278 6.46667 10.9 6.41667 10.6667 6.38334V5.66667H1.33333V12.3333H5.53333C5.61111 12.5778 5.70278 12.8111 5.80833 13.0333C5.91389 13.2556 6.03889 13.4667 6.18333 13.6667H1.33333ZM10 14.3333C9.07778 14.3333 8.29167 14.0083 7.64167 13.3583C6.99167 12.7083 6.66667 11.9222 6.66667 11C6.66667 10.0778 6.99167 9.29167 7.64167 8.64167C8.29167 7.99167 9.07778 7.66667 10 7.66667C10.9222 7.66667 11.7083 7.99167 12.3583 8.64167C13.0083 9.29167 13.3333 10.0778 13.3333 11C13.3333 11.9222 13.0083 12.7083 12.3583 13.3583C11.7083 14.0083 10.9222 14.3333 10 14.3333ZM10.3333 10.8667V9.33334C10.3333 9.24445 10.3 9.16667 10.2333 9.1C10.1667 9.03334 10.0889 9 10 9C9.91111 9 9.83333 9.03334 9.76667 9.1C9.7 9.16667 9.66667 9.24445 9.66667 9.33334V10.85C9.66667 10.9389 9.68333 11.025 9.71667 11.1083C9.75 11.1917 9.8 11.2667 9.86667 11.3333L10.8833 12.35C10.95 12.4167 11.0278 12.45 11.1167 12.45C11.2056 12.45 11.2833 12.4167 11.35 12.35C11.4167 12.2833 11.45 12.2056 11.45 12.1167C11.45 12.0278 11.4167 11.95 11.35 11.8833L10.3333 10.8667Z" fill="black"/>
</svg>
