<svg width="100" height="100" viewBox="0 0 21 21" fill="none" xmlns="http://www.w3.org/2000/svg">
    <path d="M11.25 5.5C11.25 5.08579 10.9142 4.75 10.5 4.75C10.0858 4.75 9.75 5.08579 9.75 5.5V15.5C9.75 15.9142 10.0858 16.25 10.5 16.25C10.9142 16.25 11.25 15.9142 11.25 15.5V5.5Z" fill="black"/>
    <path d="M15.25 9.5C15.25 9.08579 14.9142 8.75 14.5 8.75C14.0858 8.75 13.75 9.08579 13.75 9.5V15.5C13.75 15.9142 14.0858 16.25 14.5 16.25C14.9142 16.25 15.25 15.9142 15.25 15.5V9.5Z" fill="black"/>
    <path d="M7.25 11.5C7.25 11.0858 6.91421 10.75 6.5 10.75C6.08579 10.75 5.75 11.0858 5.75 11.5V15.5C5.75 15.9142 6.08579 16.25 6.5 16.25C6.91421 16.25 7.25 15.9142 7.25 15.5V11.5Z" fill="black"/>
    <path fill-rule="evenodd" clip-rule="evenodd" d="M14.9635 0.873728C13.8214 0.749985 12.3818 0.749992 10.5452 0.75H10.4548C8.61821 0.749992 7.17861 0.749985 6.03648 0.873728C4.87094 1.00001 3.92656 1.26232 3.12024 1.84815C2.63209 2.20281 2.20281 2.63209 1.84815 3.12024C1.26232 3.92656 1.00001 4.87094 0.873728 6.03648C0.749985 7.17861 0.749992 8.61821 0.75 10.4548V10.5452C0.749992 12.3818 0.749985 13.8214 0.873728 14.9635C1.00001 16.1291 1.26232 17.0734 1.84815 17.8798C2.20281 18.3679 2.63209 18.7972 3.12024 19.1518C3.92656 19.7377 4.87094 20 6.03648 20.1263C7.17859 20.25 8.61817 20.25 10.4547 20.25H10.5453C12.3818 20.25 13.8214 20.25 14.9635 20.1263C16.1291 20 17.0734 19.7377 17.8798 19.1518C18.3679 18.7972 18.7972 18.3679 19.1518 17.8798C19.7377 17.0734 20 16.1291 20.1263 14.9635C20.25 13.8214 20.25 12.3818 20.25 10.5453V10.4547C20.25 8.61824 20.25 7.17859 20.1263 6.03648C20 4.87094 19.7377 3.92656 19.1518 3.12024C18.7972 2.63209 18.3679 2.20281 17.8798 1.84815C17.0734 1.26232 16.1291 1.00001 14.9635 0.873728ZM4.00191 3.06168C4.50992 2.69259 5.16013 2.47745 6.19804 2.365C7.24999 2.25103 8.60843 2.25 10.5 2.25C12.3916 2.25 13.75 2.25103 14.802 2.365C15.8399 2.47745 16.4901 2.69259 16.9981 3.06168C17.3589 3.32382 17.6762 3.64111 17.9383 4.00191C18.3074 4.50992 18.5225 5.16013 18.635 6.19804C18.749 7.24999 18.75 8.60843 18.75 10.5C18.75 12.3916 18.749 13.75 18.635 14.802C18.5225 15.8399 18.3074 16.4901 17.9383 16.9981C17.6762 17.3589 17.3589 17.6762 16.9981 17.9383C16.4901 18.3074 15.8399 18.5225 14.802 18.635C13.75 18.749 12.3916 18.75 10.5 18.75C8.60843 18.75 7.24999 18.749 6.19804 18.635C5.16013 18.5225 4.50992 18.3074 4.00191 17.9383C3.64111 17.6762 3.32382 17.3589 3.06168 16.9981C2.69259 16.4901 2.47745 15.8399 2.365 14.802C2.25103 13.75 2.25 12.3916 2.25 10.5C2.25 8.60843 2.25103 7.24999 2.365 6.19804C2.47745 5.16013 2.69259 4.50992 3.06168 4.00191C3.32382 3.64111 3.64111 3.32382 4.00191 3.06168Z" fill="black"/>
</svg>
