<svg width="100" height="100" viewBox="0 0 11 12" fill="none" xmlns="http://www.w3.org/2000/svg">
    <path d="M1.66634 7.3334V11.3334C1.66634 11.5223 1.60245 11.6806 1.47467 11.8084C1.3469 11.9362 1.18856 12.0001 0.999674 12.0001C0.810786 12.0001 0.652452 11.9362 0.524674 11.8084C0.396897 11.6806 0.333008 11.5223 0.333008 11.3334V1.3334C0.333008 1.14451 0.396897 0.986177 0.524674 0.858399C0.652452 0.730622 0.810786 0.666733 0.999674 0.666733H5.78301C5.93856 0.666733 6.07745 0.716733 6.19967 0.816733C6.3219 0.916733 6.39968 1.04451 6.43301 1.20007L6.59968 2.00007H9.66634C9.85523 2.00007 10.0136 2.06396 10.1413 2.19173C10.2691 2.31951 10.333 2.47784 10.333 2.66673V8.00007C10.333 8.18896 10.2691 8.34729 10.1413 8.47507C10.0136 8.60285 9.85523 8.66673 9.66634 8.66673H6.21634C6.06079 8.66673 5.9219 8.61673 5.79967 8.51673C5.67745 8.41673 5.59967 8.28896 5.56634 8.1334L5.39967 7.3334H1.66634ZM6.76634 7.3334H8.99967V3.3334H6.04967C5.89412 3.3334 5.75523 3.2834 5.63301 3.1834C5.51079 3.0834 5.43301 2.95562 5.39967 2.80007L5.23301 2.00007H1.66634V6.00007H5.94967C6.10523 6.00007 6.24412 6.05007 6.36634 6.15007C6.48856 6.25007 6.56634 6.37784 6.59968 6.5334L6.76634 7.3334Z" fill="black"/>
</svg>
