<svg width="100" height="100" viewBox="0 0 24 25" fill="none" xmlns="http://www.w3.org/2000/svg">
    <path d="M2.76696 16.3197L3.48025 16.0879L3.48025 16.0879L2.76696 16.3197ZM1.65645 10.1516L2.37776 10.357L1.65645 10.1516ZM6.29367 5.46556L5.85283 4.8588L5.85283 4.8588L6.29367 5.46556ZM1.76974 9.80291L2.47405 10.0607L1.76974 9.80291ZM5.79064 22.178L5.37234 22.8005L5.37234 22.8005L5.79064 22.178ZM5.49405 21.9625L5.03126 22.5527L5.03126 22.5527L5.49405 21.9625ZM21.2331 16.3197L20.5198 16.0879L21.2331 16.3197ZM18.506 21.9625L18.9687 22.5527L18.9687 22.5527L18.506 21.9625ZM18.2094 22.178L18.6277 22.8005L18.6277 22.8005L18.2094 22.178ZM17.7063 5.46556L18.1472 4.8588L18.1472 4.8588L17.7063 5.46556ZM22.2303 9.80291L21.526 10.0607L22.2303 9.80291ZM22.3436 10.1516L21.6222 10.357L22.3436 10.1516ZM12.1833 2.50336L12.1558 3.25286L12.1833 2.50336ZM11.8167 2.50336L11.8442 3.25286L11.8167 2.50336ZM10 17.5697C9.58579 17.5697 9.25001 17.9054 9.25001 18.3197C9.25001 18.7339 9.58579 19.0697 10 19.0697V17.5697ZM14 19.0697C14.4142 19.0697 14.75 18.7339 14.75 18.3197C14.75 17.9054 14.4142 17.5697 14 17.5697V19.0697ZM3.48025 16.0879C2.96589 14.5049 2.5995 13.374 2.40725 12.4558C2.21861 11.555 2.21454 10.9301 2.37776 10.357L0.935142 9.94611C0.680922 10.8386 0.722785 11.7303 0.939095 12.7633C1.1518 13.7791 1.54938 14.9994 2.05366 16.5514L3.48025 16.0879ZM5.85283 4.8588C4.53261 5.81799 3.49365 6.57158 2.7245 7.26835C1.94232 7.97693 1.38435 8.67368 1.06542 9.54515L2.47405 10.0607C2.67883 9.50112 3.04942 8.99798 3.73157 8.38002C4.42676 7.75026 5.38791 7.05068 6.73451 6.07232L5.85283 4.8588ZM2.37776 10.357C2.40622 10.2571 2.43834 10.1582 2.47405 10.0607L1.06542 9.54515C1.01711 9.67717 0.973652 9.81091 0.935142 9.94611L2.37776 10.357ZM12 22.2779C10.3355 22.2779 9.14673 22.2768 8.21414 22.176C7.29905 22.077 6.70349 21.8878 6.20894 21.5555L5.37234 22.8005C6.1426 23.3181 7.00355 23.5538 8.05284 23.6673C9.08464 23.7789 10.3681 23.7779 12 23.7779V22.2779ZM2.05366 16.5514C2.55794 18.1034 2.95359 19.3244 3.37858 20.2712C3.81077 21.2341 4.301 21.9801 5.03126 22.5527L5.95684 21.3723C5.48796 21.0046 5.12396 20.4967 4.74704 19.657C4.36292 18.8012 3.9946 17.6709 3.48025 16.0879L2.05366 16.5514ZM6.20894 21.5555C6.12269 21.4975 6.0386 21.4364 5.95684 21.3723L5.03126 22.5527C5.14189 22.6394 5.25566 22.7221 5.37234 22.8005L6.20894 21.5555ZM20.5198 16.0879C20.0054 17.6709 19.6371 18.8012 19.253 19.657C18.8761 20.4967 18.5121 21.0046 18.0432 21.3723L18.9687 22.5527C19.699 21.9801 20.1892 21.2341 20.6214 20.2712C21.0464 19.3244 21.4421 18.1034 21.9463 16.5514L20.5198 16.0879ZM12 23.7779C13.6319 23.7779 14.9154 23.7789 15.9472 23.6673C16.9965 23.5538 17.8574 23.3181 18.6277 22.8005L17.7911 21.5555C17.2965 21.8878 16.701 22.077 15.7859 22.176C14.8533 22.2768 13.6645 22.2779 12 22.2779V23.7779ZM18.0432 21.3723C17.9614 21.4364 17.8773 21.4975 17.7911 21.5555L18.6277 22.8005C18.7444 22.7221 18.8581 22.6394 18.9687 22.5527L18.0432 21.3723ZM17.2655 6.07232C18.6121 7.05068 19.5733 7.75026 20.2684 8.38002C20.9506 8.99798 21.3212 9.50112 21.526 10.0607L22.9346 9.54515C22.6157 8.67368 22.0577 7.97693 21.2755 7.26835C20.5064 6.57158 19.4674 5.81799 18.1472 4.8588L17.2655 6.07232ZM21.9463 16.5514C22.4506 14.9994 22.8482 13.7791 23.0609 12.7633C23.2772 11.7303 23.3191 10.8386 23.0649 9.94611L21.6222 10.357C21.7855 10.9301 21.7814 11.555 21.5928 12.4558C21.4005 13.374 21.0341 14.5049 20.5198 16.0879L21.9463 16.5514ZM21.526 10.0607C21.5617 10.1582 21.5938 10.2571 21.6222 10.357L23.0649 9.94611C23.0264 9.81091 22.9829 9.67717 22.9346 9.54515L21.526 10.0607ZM18.1472 4.8588C16.827 3.8996 15.7892 3.14436 14.8889 2.62818C13.9733 2.10323 13.1382 1.78789 12.2108 1.75387L12.1558 3.25286C12.7512 3.2747 13.3443 3.47167 14.1428 3.92948C14.9566 4.39603 15.9189 5.09396 17.2655 6.07232L18.1472 4.8588ZM6.73451 6.07232C8.0811 5.09396 9.04345 4.39603 9.85722 3.92948C10.6557 3.47167 11.2488 3.2747 11.8442 3.25286L11.7892 1.75387C10.8618 1.78789 10.0268 2.10323 9.11115 2.62818C8.21081 3.14436 7.17305 3.8996 5.85283 4.8588L6.73451 6.07232ZM12.2108 1.75387C12.0703 1.74871 11.9297 1.74871 11.7892 1.75387L11.8442 3.25286C11.948 3.24905 12.052 3.24905 12.1558 3.25286L12.2108 1.75387ZM10 19.0697H14V17.5697H10V19.0697Z" fill="black"/>
    <path d="M9 3.5L2 9.5L1.5 11.5L3.5 18.5L6.5 22.5L15.5 23L19.5 21L21.5 14.5C21.6667 13 22 9.9 22 9.5C22 9.1 19 6.66667 17.5 5.5L12.5 2.5L9 3.5Z" fill="black"/>
    <path d="M9.5 20H14.5" stroke="white" stroke-linecap="round"/>
</svg>
