<svg width="100" height="100" viewBox="0 0 16 16" fill="none" xmlns="http://www.w3.org/2000/svg">
    <path d="M12.687 11.9799C12.4917 11.7846 12.1751 11.7846 11.9798 11.9799C11.7846 12.1751 11.7846 12.4917 11.9798 12.687L12.687 11.9799ZM14.6464 15.3536C14.8417 15.5489 15.1583 15.5489 15.3536 15.3536C15.5488 15.1583 15.5488 14.8418 15.3536 14.6465L14.6464 15.3536ZM5.89009 3.53488C6.16283 3.49169 6.34891 3.23557 6.30572 2.96282C6.26252 2.69008 6.0064 2.504 5.73365 2.54719L5.89009 3.53488ZM2.54717 5.73367C2.50398 6.00642 2.69006 6.26254 2.9628 6.30574C3.23555 6.34893 3.49167 6.16285 3.53486 5.89011L2.54717 5.73367ZM11.9798 12.687L14.6464 15.3536L15.3536 14.6465L12.687 11.9799L11.9798 12.687ZM7.00001 12.5C3.96244 12.5 1.5 10.0376 1.5 7.00001H0.499999C0.499999 10.5899 3.41015 13.5 7.00001 13.5V12.5ZM12.5 7.00001C12.5 10.0376 10.0376 12.5 7.00001 12.5V13.5C10.5899 13.5 13.5 10.5899 13.5 7.00001H12.5ZM7.00001 1.5C10.0376 1.5 12.5 3.96244 12.5 7.00001H13.5C13.5 3.41015 10.5899 0.499999 7.00001 0.499999V1.5ZM7.00001 0.499999C3.41015 0.499999 0.499999 3.41015 0.499999 7.00001H1.5C1.5 3.96244 3.96244 1.5 7.00001 1.5V0.499999ZM5.73365 2.54719C4.0934 2.80699 2.80697 4.09342 2.54717 5.73367L3.53486 5.89011C3.72688 4.67774 4.67772 3.7269 5.89009 3.53488L5.73365 2.54719Z" fill="#7B7B7B"/>
</svg>
